<svg xmlns="http://www.w3.org/2000/svg" viewBox="0 0 412.67 44.04"><defs><style>.cls-1{fill:#e5007d;}.cls-2{fill:#fff;}</style></defs><g id="Ebene_2" data-name="Ebene 2"><g id="Ebene_1-2" data-name="Ebene 1"><path class="cls-1" d="M22,44A22,22,0,1,0,0,22,22,22,0,0,0,22,44"/><path class="cls-2" d="M54.14,3.55h7.69l6.81,29.2h.1L75,3.55h10l6.44,29.2h.1l6.86-29.2h7.11L95.91,40.08H86.49l-6.6-29.21h-.1L73.3,40.08H63.82Z"/><path class="cls-2" d="M110.71,3.55h21.56V9.3H118v9h13v5.76H118V34.32h14.34v5.76H110.71Z"/><path class="cls-2" d="M139.64,3.55h7.9c7.85,0,17.22-.27,17.22,9.89a8.36,8.36,0,0,1-7.53,8.48V22c2,.16,3.13,2.15,3.87,3.77L167,40.08h-8.17L154.4,28.67c-1.05-2.72-2-3.77-5.08-3.77H147V40.08h-7.33ZM147,19.14h2.41c3.6,0,7.74-.52,7.74-5.08,0-4.39-4.08-4.76-7.74-4.76H147Z"/><path class="cls-2" d="M172.76,3.55h12.77c4.71,0,11.78,1.35,11.78,9.36,0,4.35-2.93,7.38-7.28,8.17v.1c5,.48,8.37,3.82,8.37,8.32,0,9.22-8.26,10.58-12.87,10.58H172.76Zm7.33,14.75h3c3.09,0,6.91-.67,6.91-4.44,0-4.24-3.71-4.56-7.07-4.56h-2.82Zm0,16h3.45c3.4,0,7.54-.84,7.54-5.08,0-4.76-3.87-5.49-7.54-5.49h-3.45Z"/><path class="cls-2" d="M205.25,3.55h21.56V9.3H212.58v9h13v5.76h-13V34.32h14.34v5.76H205.25Z"/><path class="cls-2" d="M231.2,3.55h7.7l6.8,29.2h.1L252,3.55H262l6.44,29.2h.1l6.86-29.2h7.11L273,40.08h-9.42L257,10.87h-.11l-6.49,29.21h-9.47Z"/><path class="cls-2" d="M303.89,2.92c11.46,0,17.9,7.74,17.9,18.79s-6.33,19-17.9,19c-11.73,0-17.9-7.8-17.9-19S292.27,2.92,303.89,2.92Zm0,32c7.48,0,10.26-6.65,10.26-13.24s-3-13-10.26-13-10.26,6.6-10.26,13S296.4,35,303.89,35Z"/><path class="cls-2" d="M329,3.55h7.32V34.32h14.19v5.76H329Z"/><path class="cls-2" d="M355.58,3.55h7.32v15.7l13.2-15.7h9l-15,17.21,15.65,19.32h-9.58L363,23.12h-.11v17h-7.32Z"/><path class="cls-2" d="M391,3.55h21.56V9.3H398.33v9h13v5.76h-13V34.32h14.34v5.76H391Z"/></g></g></svg>